<svg width="354" height="345" viewBox="0 0 354 345" fill="none" xmlns="http://www.w3.org/2000/svg">
<circle cx="177.07" cy="175.25" r="155.259" stroke="#2EC4B6" stroke-width="19.8034"/>
<path d="M191.329 123.253C196.647 127.487 200.373 133.279 201.186 140.053C201.551 144.863 201.113 149.639 198.815 153.941C198.655 154.257 198.496 154.574 198.33 154.899C195.529 160.116 190.811 163.977 185.188 165.874C178.651 167.638 171.944 167.279 165.915 164.011C159.75 160.251 155.652 155.306 153.924 148.294C152.417 141.351 154.153 135.389 157.786 129.529C160.096 126.169 163.002 123.67 166.626 121.773C167.053 121.543 167.053 121.543 167.49 121.309C175.01 117.583 184.494 118.335 191.302 123.246L191.329 123.253Z" fill="#CBF3F0"/>
<path d="M191.329 250.61C192.569 251.538 193.65 252.541 194.716 253.659C195.069 254.008 195.069 254.008 195.428 254.363C200.204 259.342 201.999 265.609 201.897 272.383C201.687 278.819 198.635 284.441 194.039 288.879C188.823 293.214 182.828 295.077 176.087 294.637C169.313 293.773 163.351 290.708 158.914 285.525C154.951 280.038 153.461 273.535 154.409 266.862C155.784 260.189 159.625 254.329 165.282 250.502C173.479 245.624 183.2 245.455 191.329 250.604V250.61Z" fill="#2EC4B6"/>
<path d="M115.458 233.336C117.595 234.552 119.692 235.852 121.758 237.163C123.055 237.959 124.383 238.694 125.721 239.433C130.835 242.291 134.832 245.191 136.627 251.051C137.742 255.386 137.285 259.79 136.348 264.091C135.701 267.163 135.44 270.256 135.22 273.372C134.917 276.963 133.797 280.113 131.054 282.551C129.055 284.032 127.091 284.719 124.618 284.584C121.129 283.798 117.912 282.284 114.694 280.79C114.447 280.677 114.199 280.564 113.945 280.448C110.389 278.822 106.968 277.105 103.614 275.096C103.201 274.864 102.788 274.636 102.375 274.405C93.839 269.697 93.839 269.697 92.3825 265.599C91.5832 262.635 92.1986 259.536 92.8568 256.589C92.9333 256.236 93.0102 255.884 93.0891 255.518C93.7564 252.517 94.549 249.591 95.5042 246.644C95.5797 246.408 95.6549 246.173 95.7328 245.929C99.2554 234.989 99.2554 234.989 103.523 232.584C107.757 230.572 111.483 231.107 115.48 233.322L115.458 233.336Z" fill="#2EC4B6"/>
<path d="M188.866 60.2518C189.119 60.2863 189.371 60.3209 189.632 60.3565C203.892 62.3549 217.576 68.1808 228.923 77.1907C229.251 77.4518 229.58 77.7123 229.915 77.9833C234.657 81.8446 239.027 85.9431 242.82 90.7529C243.042 91.0198 243.264 91.2881 243.491 91.5624C245.496 93.9876 247.217 96.5754 248.91 99.2174C249.149 99.5866 249.388 99.9524 249.632 100.332C251.268 102.916 252.677 105.582 254.001 108.326C254.225 108.796 254.452 109.264 254.679 109.731C258.201 117.014 260.2 124.77 261.453 132.764C261.497 133.045 261.542 133.326 261.588 133.617C263.966 149.537 262.323 171.215 252.646 184.425C251.907 185.194 251.907 185.194 251.142 185.865C250.766 186.203 250.766 186.203 250.38 186.549C247.866 188.429 244.452 188.131 241.471 187.812C240.076 187.443 238.962 186.884 237.746 186.119C237.461 185.947 237.177 185.773 236.885 185.597C235.92 184.994 234.971 184.371 234.02 183.748C233.163 183.192 232.302 182.643 231.439 182.095C231.097 181.879 231.097 181.879 230.748 181.658C229.312 180.76 227.852 179.954 226.344 179.192C221.365 176.665 218.588 173.772 216.725 168.488C215.346 163.712 216.254 159.445 217.368 154.736C218.825 148.402 218.703 141.256 217.094 134.989C217.025 134.647 216.956 134.305 216.884 133.953C215.939 129.55 213.913 125.451 211.329 121.793C211.124 121.492 210.919 121.19 210.709 120.878C204.375 111.835 195.365 106.144 184.56 103.841C173.281 101.995 162.07 104.468 152.721 110.988C143.576 117.661 137.513 127.111 135.48 138.322C134.542 144.385 134.918 150.414 136.486 156.342C136.576 156.694 136.666 157.05 136.759 157.412C138.331 162.73 140.993 167.743 144.617 171.909C144.818 172.16 145.02 172.411 145.227 172.672C147.937 175.981 151.595 178.362 155.117 180.733C155.383 180.918 155.649 181.102 155.924 181.292C162.562 185.627 171.03 186.745 178.787 186.915C183.292 187.023 187.627 187.358 192.031 188.171C192.332 188.225 192.634 188.279 192.942 188.335C201.613 189.93 209.641 192.907 217.431 196.972C217.671 197.097 217.912 197.223 218.159 197.351C223.409 200.126 228.253 203.516 232.69 207.479C232.977 207.728 233.263 207.977 233.557 208.234C237.182 211.432 240.569 214.839 243.516 218.667C243.915 219.165 243.915 219.165 244.325 219.676C253.708 231.464 262.819 248.772 261.735 264.387C261.285 267.164 259.55 268.96 257.4 270.653C252.59 274.108 247.137 276.852 241.785 279.392C241.567 279.496 241.348 279.6 241.124 279.706C239.654 280.401 238.181 281.085 236.721 281.762C236.369 281.927 236.02 282.093 235.657 282.264C232.68 283.652 229.73 284.851 226.41 283.903C223.213 282.596 221.228 280.482 219.772 277.366C218.925 275.103 218.708 272.895 218.627 270.49C218.261 260.396 214.122 252.233 207.923 244.51C206.457 242.613 204.68 241.295 202.883 239.727C195.262 233.461 185.913 231.124 176.226 230.853C162.203 230.46 148.892 227.33 136.596 220.793C136.346 220.664 136.095 220.535 135.838 220.403C131.976 218.411 128.521 215.932 125.066 213.358C124.759 213.13 124.45 212.904 124.135 212.667C122.391 211.349 120.785 209.893 119.19 208.399C118.472 207.742 117.74 207.112 116.991 206.489C110.285 200.629 105.204 193.042 101.038 185.217L100.692 184.58C90.0228 164.867 88.6679 141.225 95.0019 119.886C97.9928 110.232 102.589 101.222 108.822 93.2624C109.101 92.8932 109.38 92.524 109.655 92.1548C116.565 82.9756 125.27 75.8626 135.228 70.2399C135.465 70.103 135.702 69.9662 135.946 69.8266C151.832 60.7152 171.173 57.5312 189.125 60.0716L188.866 60.2518Z" fill="#CBF3F0"/>
<path fill-rule="evenodd" clip-rule="evenodd" d="M256.279 271.284C251.752 274.376 246.724 276.894 241.783 279.24C241.565 279.343 241.346 279.447 241.122 279.554C239.652 280.249 238.179 280.933 236.719 281.61C236.455 281.734 236.193 281.857 235.926 281.984C235.836 282.026 235.746 282.069 235.655 282.111C232.678 283.5 229.728 284.699 226.408 283.751C223.211 282.443 221.226 280.33 219.77 277.214C218.923 274.951 218.706 272.743 218.625 270.338C218.259 260.244 214.12 252.081 207.921 244.358C206.772 242.871 205.433 241.74 204.042 240.566C203.658 240.241 203.27 239.914 202.881 239.575C195.26 233.308 185.911 230.971 176.224 230.7C162.201 230.307 148.89 227.178 136.594 220.64C136.414 220.547 136.232 220.454 136.048 220.36C135.978 220.324 135.907 220.287 135.836 220.251C131.974 218.259 128.519 215.78 125.064 213.206C124.981 213.144 124.898 213.083 124.815 213.021C124.59 212.855 124.363 212.688 124.133 212.515C122.389 211.197 120.783 209.741 119.188 208.247C118.47 207.59 117.738 206.96 116.989 206.336C110.283 200.477 105.202 192.889 101.036 185.065L100.69 184.428C94.2508 172.53 91.2043 159.201 91.1934 145.811C102.473 154.512 119.013 162.812 141.65 167.845C142.552 169.214 143.541 170.523 144.615 171.757C144.679 171.837 144.744 171.918 144.808 171.998C144.946 172.169 145.084 172.342 145.225 172.519C147.801 175.666 151.236 177.974 154.595 180.231C154.769 180.348 154.942 180.464 155.115 180.581C155.381 180.765 155.647 180.95 155.922 181.14C162.56 185.475 171.028 186.593 178.785 186.762C183.29 186.871 187.625 187.206 192.029 188.019C192.171 188.045 192.314 188.07 192.457 188.096C192.617 188.125 192.777 188.153 192.94 188.183C201.611 189.778 209.639 192.755 217.429 196.82C217.669 196.945 217.91 197.071 218.157 197.199C223.407 199.973 228.251 203.364 232.688 207.327L232.741 207.372C233.01 207.606 233.279 207.84 233.555 208.082C237.18 211.28 240.567 214.687 243.514 218.515C243.901 218.998 243.913 219.012 244.287 219.479L244.323 219.524C253.235 230.72 261.902 246.896 261.821 261.872L256.279 271.284Z" fill="#2EC4B6" fill-opacity="0.33"/>
<path fill-rule="evenodd" clip-rule="evenodd" d="M165.36 185.296C169.754 186.417 174.384 186.818 178.785 186.914C183.29 187.023 187.625 187.358 192.029 188.171C192.167 188.196 192.306 188.221 192.445 188.246C192.609 188.275 192.773 188.305 192.94 188.335C201.611 189.93 209.639 192.907 217.429 196.972C217.669 197.097 217.91 197.222 218.157 197.351C223.407 200.125 228.251 203.516 232.688 207.479L232.741 207.524C233.01 207.758 233.279 207.992 233.555 208.234C237.18 211.432 240.567 214.839 243.514 218.667C243.901 219.15 243.913 219.164 244.287 219.631L244.323 219.676C253.706 231.463 262.817 248.772 261.733 264.387C261.283 267.164 259.548 268.959 257.398 270.653C252.588 274.108 247.134 276.851 241.783 279.392C241.565 279.495 241.346 279.599 241.122 279.706C239.652 280.4 238.179 281.085 236.719 281.762C236.456 281.885 236.194 282.009 235.928 282.135C235.837 282.177 235.747 282.22 235.655 282.263C232.678 283.652 229.728 284.851 226.408 283.903C223.211 282.595 221.226 280.482 219.77 277.366C218.923 275.103 218.706 272.895 218.625 270.49C218.259 260.396 214.12 252.233 207.921 244.51C206.772 243.023 205.433 241.892 204.042 240.718C203.658 240.393 203.27 240.066 202.881 239.727C195.26 233.46 185.911 231.123 176.224 230.852C162.201 230.459 148.89 227.33 136.594 220.792C136.414 220.699 136.232 220.606 136.048 220.512C135.978 220.476 135.907 220.439 135.836 220.403C131.974 218.411 128.519 215.932 125.064 213.358C124.981 213.296 124.898 213.235 124.815 213.173C124.59 213.007 124.363 212.84 124.133 212.667C122.389 211.349 120.783 209.893 119.188 208.399C118.47 207.742 117.738 207.112 116.989 206.488C110.283 200.629 105.202 193.041 101.036 185.217L100.69 184.58C94.8916 173.866 91.8441 161.992 91.2871 149.957C105.192 164.305 129.145 180.084 165.36 185.296Z" fill="#2EC4B6"/>
</svg>
