<svg width="168" height="231" viewBox="0 0 168 231" fill="none" xmlns="http://www.w3.org/2000/svg">
<path d="M97.8686 62.5758C103.066 66.714 106.708 72.3749 107.502 78.996C107.86 83.6969 107.431 88.3647 105.185 92.5691C105.029 92.8779 104.873 93.1881 104.711 93.5059C101.974 98.6041 97.3621 102.378 91.8667 104.232C85.4774 105.957 78.9226 105.606 73.0298 102.411C67.0047 98.7366 62.999 93.9032 61.3106 87.0504C59.8375 80.2639 61.5341 74.4374 65.0846 68.7102C67.3424 65.4262 70.1828 62.983 73.7251 61.1291C74.1422 60.9043 74.1422 60.9043 74.5692 60.6756C81.9186 57.034 91.188 57.769 97.8421 62.5692L97.8686 62.5758Z" fill="white"/>
<path d="M97.8684 187.051C99.08 187.958 100.136 188.938 101.179 190.03C101.523 190.371 101.523 190.371 101.874 190.719C106.542 195.586 108.296 201.71 108.197 208.331C107.992 214.621 105.009 220.116 100.517 224.453C95.4186 228.691 89.559 230.511 82.9711 230.081C76.35 229.237 70.5235 226.241 66.1868 221.176C62.3135 215.813 60.8568 209.457 61.7838 202.935C63.1279 196.413 66.882 190.686 72.4105 186.945C80.422 182.178 89.9231 182.012 97.8684 187.045V187.051Z" fill="white"/>
<path d="M23.714 170.167C25.8029 171.356 27.8521 172.627 29.8715 173.908C31.1394 174.686 32.4372 175.405 33.7448 176.126C38.7437 178.92 42.6501 181.754 44.4047 187.481C45.4938 191.719 45.0469 196.023 44.1316 200.227C43.4992 203.23 43.2443 206.252 43.0292 209.298C42.7329 212.807 41.6387 215.886 38.9572 218.269C37.004 219.716 35.0839 220.388 32.6672 220.256C29.2574 219.487 26.1124 218.008 22.9674 216.548C22.7264 216.437 22.4841 216.327 22.2358 216.213C18.7598 214.624 15.4162 212.946 12.1388 210.983C11.7349 210.756 11.331 210.533 10.9271 210.307C2.58461 205.706 2.58461 205.706 1.16109 201.7C0.379809 198.803 0.981329 195.774 1.62456 192.894C1.69938 192.55 1.77453 192.206 1.85166 191.848C2.50383 188.915 3.27849 186.055 4.21206 183.174C4.28588 182.944 4.35938 182.714 4.43552 182.476C7.87845 171.783 7.87845 171.783 12.0497 169.433C16.1878 167.466 19.8294 167.989 23.7358 170.154L23.714 170.167Z" fill="white"/>
<path d="M95.4604 1.00037C95.7074 1.03413 95.9537 1.0679 96.2086 1.10266C110.146 3.05586 123.52 8.74995 134.611 17.5559C134.931 17.8112 135.253 18.0657 135.581 18.3306C140.215 22.1046 144.486 26.1103 148.194 30.8112C148.41 31.0721 148.627 31.3343 148.849 31.6024C150.809 33.9728 152.491 36.502 154.146 39.0842C154.379 39.445 154.613 39.8026 154.851 40.1733C156.45 42.6993 157.827 45.3046 159.122 47.9862C159.34 48.4463 159.562 48.9032 159.784 49.36C163.227 56.4776 165.18 64.0587 166.405 71.8715C166.448 72.1463 166.492 72.4211 166.536 72.7058C168.86 88.2652 167.255 109.452 157.797 122.363C157.075 123.115 157.075 123.115 156.327 123.77C155.959 124.101 155.959 124.101 155.582 124.439C153.126 126.276 149.789 125.985 146.875 125.674C145.511 125.313 144.422 124.767 143.234 124.019C142.956 123.851 142.678 123.681 142.393 123.509C141.449 122.92 140.522 122.31 139.592 121.701C138.755 121.158 137.914 120.622 137.07 120.086C136.735 119.875 136.735 119.875 136.394 119.659C134.991 118.781 133.564 117.994 132.091 117.249C127.224 114.779 124.51 111.952 122.689 106.787C121.341 102.12 122.229 97.9484 123.318 93.3468C124.741 87.1562 124.622 80.171 123.05 74.0465C122.982 73.7122 122.914 73.3778 122.844 73.0335C121.921 68.7298 119.941 64.7241 117.415 61.1488C117.215 60.8544 117.015 60.5595 116.809 60.2549C110.619 51.4158 101.813 45.8542 91.2521 43.603C80.2281 41.7988 69.2703 44.2155 60.1333 50.5882C51.1949 57.1099 45.2691 66.3463 43.2828 77.3041C42.3658 83.2299 42.7332 89.1226 44.266 94.916C44.354 95.2603 44.4418 95.6079 44.5325 95.9621C46.0686 101.16 48.6706 106.059 52.2129 110.131C52.4092 110.376 52.6068 110.621 52.8088 110.876C55.4572 114.11 59.0325 116.438 62.4755 118.755C62.7353 118.935 62.9952 119.116 63.2634 119.301C69.752 123.539 78.0283 124.631 85.6093 124.797C90.0123 124.903 94.2498 125.23 98.5534 126.025C98.8477 126.078 99.1427 126.13 99.444 126.185C107.919 127.744 115.765 130.654 123.379 134.627C123.614 134.749 123.849 134.872 124.091 134.997C129.222 137.709 133.956 141.023 138.293 144.896C138.573 145.139 138.852 145.382 139.14 145.634C142.683 148.759 145.993 152.09 148.873 155.83C149.264 156.317 149.264 156.317 149.664 156.817C158.835 168.338 167.74 185.254 166.68 200.516C166.24 203.23 164.545 204.985 162.443 206.64C157.742 210.017 152.412 212.698 147.182 215.181C146.968 215.283 146.755 215.384 146.536 215.489C145.099 216.167 143.659 216.836 142.232 217.498C141.888 217.659 141.547 217.821 141.193 217.988C138.283 219.345 135.399 220.517 132.155 219.59C129.03 218.312 127.09 216.247 125.667 213.201C124.839 210.99 124.627 208.831 124.548 206.481C124.19 196.615 120.145 188.637 114.086 181.089C112.653 179.235 110.917 177.946 109.16 176.414C101.712 170.289 92.5747 168.005 83.1066 167.74C69.4011 167.356 56.3907 164.297 44.3736 157.908C44.1293 157.782 43.8836 157.657 43.632 157.527C39.858 155.581 36.4813 153.158 33.1046 150.642C32.804 150.419 32.5021 150.198 32.1942 149.966C30.4893 148.678 28.9201 147.255 27.3609 145.795C26.659 145.153 25.944 144.537 25.2123 143.928C18.6575 138.201 13.6917 130.785 9.61982 123.138L9.28215 122.515C-1.14597 103.248 -2.47018 80.1408 3.72048 59.2846C6.64366 49.8496 11.136 41.0437 17.2274 33.264C17.5002 32.9031 17.7736 32.5423 18.0418 32.1814C24.7952 23.2099 33.3032 16.2579 43.0361 10.7624C43.2682 10.6287 43.4996 10.4949 43.738 10.3585C59.2643 1.45324 78.1673 -1.65864 95.713 0.824247L95.4604 1.00037Z" fill="#CBF3F0"/>
<path fill-rule="evenodd" clip-rule="evenodd" d="M161.351 207.257C156.925 210.279 152.011 212.74 147.182 215.033C146.968 215.134 146.754 215.236 146.536 215.34C145.099 216.019 143.659 216.687 142.232 217.35C141.973 217.471 141.715 217.593 141.452 217.717C141.366 217.758 141.28 217.798 141.193 217.84C138.283 219.197 135.399 220.369 132.155 219.442C129.03 218.164 127.09 216.098 125.667 213.053C124.839 210.841 124.627 208.683 124.548 206.332C124.19 196.467 120.145 188.489 114.086 180.941C112.963 179.487 111.654 178.382 110.295 177.234C109.919 176.917 109.54 176.597 109.16 176.265C101.712 170.141 92.5746 167.857 83.1066 167.592C69.401 167.208 56.3907 164.149 44.3735 157.76C44.1965 157.669 44.0188 157.577 43.8386 157.485C43.7701 157.45 43.7013 157.415 43.632 157.379C39.858 155.432 36.4813 153.009 33.1046 150.493C33.0235 150.433 32.9423 150.373 32.8609 150.313C32.6406 150.151 32.419 149.987 32.1942 149.818C30.4893 148.53 28.9201 147.106 27.3608 145.646C26.659 145.004 25.9439 144.389 25.2123 143.779C18.6575 138.052 13.6917 130.637 9.61979 122.989L9.28212 122.367C2.98821 110.738 0.0106228 97.7106 0 84.6233C11.0243 93.1274 27.1898 101.239 49.3149 106.159C50.1961 107.497 51.1632 108.776 52.2129 109.983C52.2757 110.061 52.3388 110.14 52.402 110.219C52.5362 110.386 52.6715 110.554 52.8087 110.728C55.327 113.803 58.6834 116.058 61.9671 118.265C62.1368 118.379 62.3063 118.493 62.4754 118.607L62.4781 118.608C62.7371 118.788 62.9961 118.968 63.2633 119.153C69.7519 123.39 78.0282 124.483 85.6093 124.648C90.0123 124.754 94.2497 125.082 98.5534 125.876C98.8477 125.929 99.1427 125.982 99.4439 126.036C107.919 127.596 115.765 130.506 123.379 134.478C123.614 134.601 123.849 134.723 124.091 134.849C129.222 137.56 133.956 140.874 138.293 144.747C138.573 144.991 138.852 145.234 139.14 145.486C142.683 148.611 145.993 151.941 148.873 155.682C149.252 156.154 149.263 156.168 149.629 156.624L149.664 156.669C158.374 167.611 166.845 183.422 166.766 198.058L161.351 207.257Z" fill="#2EC4B6" fill-opacity="0.33"/>
<path fill-rule="evenodd" clip-rule="evenodd" d="M72.488 123.215C76.7833 124.31 81.3083 124.703 85.6094 124.797C90.0124 124.902 94.2499 125.23 98.5535 126.025C98.8478 126.078 99.1428 126.13 99.444 126.185C107.919 127.744 115.765 130.654 123.379 134.626C123.587 134.735 123.795 134.843 124.007 134.954L124.091 134.997C129.222 137.709 133.956 141.022 138.293 144.896L138.344 144.941C138.607 145.169 138.87 145.398 139.14 145.634C142.683 148.759 145.993 152.089 148.873 155.83C149.264 156.317 149.264 156.317 149.665 156.817C158.835 168.337 167.74 185.254 166.681 200.516C166.24 203.23 164.545 204.985 162.443 206.64C157.742 210.017 152.412 212.698 147.182 215.181C147.093 215.223 147.004 215.266 146.914 215.308C146.789 215.368 146.663 215.428 146.536 215.488C145.099 216.167 143.659 216.836 142.232 217.498C141.974 217.619 141.718 217.74 141.457 217.863C141.369 217.905 141.282 217.946 141.193 217.988C138.283 219.345 135.4 220.517 132.155 219.59C129.03 218.312 127.09 216.247 125.667 213.201C124.839 210.989 124.627 208.831 124.548 206.481C124.19 196.615 120.145 188.637 114.086 181.089C112.963 179.636 111.654 178.53 110.295 177.382C109.919 177.065 109.54 176.745 109.16 176.414C101.712 170.289 92.5747 168.005 83.1067 167.74C69.4011 167.356 56.3908 164.297 44.3737 157.908C44.1966 157.817 44.0189 157.726 43.8387 157.633C43.7702 157.598 43.7014 157.563 43.6321 157.527C39.8581 155.581 36.4814 153.157 33.1047 150.641C33.0234 150.581 32.942 150.521 32.8604 150.461C32.6403 150.299 32.4189 150.135 32.1943 149.966C30.4894 148.678 28.9202 147.255 27.3609 145.795C26.6591 145.153 25.944 144.537 25.2124 143.928C18.6576 138.201 13.6918 130.785 9.61989 123.138L9.28222 122.515C3.61475 112.044 0.636302 100.438 0.0917969 88.6763C13.6824 102.7 37.0931 118.121 72.488 123.215Z" fill="#2EC4B6"/>
</svg>
