<svg width="169" height="231" viewBox="0 0 169 231" fill="none" xmlns="http://www.w3.org/2000/svg">
<path d="M98.6186 62.9884C103.816 67.1266 107.458 72.7875 108.252 79.4086C108.61 84.1095 108.181 88.7773 105.935 92.9817C105.779 93.2905 105.623 93.6007 105.461 93.9185C102.724 99.0167 98.1121 102.791 92.6167 104.645C86.2274 106.369 79.6726 106.018 73.7798 102.824C67.7547 99.1491 63.749 94.3158 62.0606 87.463C60.5875 80.6765 62.2841 74.85 65.8346 69.1228C68.0924 65.8388 70.9328 63.3956 74.4751 61.5417C74.8922 61.3169 74.8922 61.3169 75.3192 61.0882C82.6686 57.4466 91.938 58.1815 98.5921 62.9818L98.6186 62.9884Z" fill="#CBF3F0"/>
<path d="M98.6184 187.464C99.83 188.371 100.886 189.351 101.929 190.443C102.273 190.784 102.273 190.784 102.624 191.132C107.292 195.998 109.046 202.123 108.947 208.744C108.742 215.034 105.759 220.529 101.267 224.866C96.1686 229.103 90.309 230.924 83.7211 230.494C77.1 229.649 71.2735 226.653 66.9368 221.588C63.0635 216.225 61.6068 209.869 62.5338 203.347C63.8779 196.826 67.632 191.099 73.1605 187.358C81.172 182.591 90.6731 182.425 98.6184 187.457V187.464Z" fill="#2EC4B6"/>
<path d="M24.464 170.58C26.5529 171.769 28.6021 173.04 30.6215 174.321C31.8894 175.099 33.1872 175.817 34.4948 176.539C39.4937 179.333 43.4001 182.167 45.1547 187.894C46.2438 192.131 45.7969 196.435 44.8816 200.639C44.2492 203.642 43.9943 206.665 43.7792 209.71C43.4829 213.219 42.3887 216.298 39.7072 218.682C37.754 220.128 35.8339 220.801 33.4172 220.668C30.0074 219.9 26.8624 218.42 23.7174 216.96C23.4764 216.85 23.2341 216.74 22.9858 216.626C19.5098 215.037 16.1662 213.358 12.8888 211.395C12.4849 211.169 12.081 210.945 11.6771 210.72C3.33461 206.118 3.33461 206.118 1.91109 202.113C1.12981 199.216 1.73133 196.187 2.37456 193.307C2.44938 192.962 2.52453 192.618 2.60166 192.261C3.25383 189.327 4.02849 186.467 4.96206 183.587C5.03588 183.357 5.10938 183.127 5.18552 182.889C8.62845 172.196 8.62845 172.196 12.7997 169.845C16.9378 167.879 20.5794 168.402 24.4858 170.567L24.464 170.58Z" fill="#2EC4B6"/>
<path d="M96.2104 1.41296C96.4574 1.44673 96.7037 1.4805 96.9586 1.51526C110.896 3.46846 124.27 9.16254 135.361 17.9685C135.681 18.2238 136.003 18.4783 136.331 18.7432C140.965 22.5172 145.236 26.5229 148.944 31.2238C149.16 31.4847 149.377 31.7469 149.599 32.015C151.559 34.3853 153.241 36.9146 154.896 39.4968C155.129 39.8576 155.363 40.2152 155.601 40.5859C157.2 43.1119 158.577 45.7172 159.872 48.3988C160.09 48.8589 160.312 49.3158 160.534 49.7726C163.977 56.8902 165.93 64.4713 167.155 72.2841C167.198 72.5589 167.242 72.8337 167.286 73.1184C169.61 88.6778 168.005 109.865 158.547 122.776C157.825 123.528 157.825 123.528 157.077 124.183C156.709 124.513 156.709 124.513 156.332 124.852C153.876 126.689 150.539 126.398 147.625 126.087C146.261 125.726 145.172 125.179 143.984 124.431C143.706 124.263 143.428 124.094 143.143 123.921C142.199 123.332 141.272 122.723 140.342 122.114C139.505 121.571 138.664 121.035 137.82 120.498C137.485 120.287 137.485 120.287 137.144 120.071C135.741 119.194 134.314 118.406 132.841 117.661C127.974 115.192 125.26 112.364 123.439 107.2C122.091 102.532 122.979 98.361 124.068 93.7594C125.491 87.5688 125.372 80.5836 123.8 74.4591C123.732 74.1248 123.664 73.7904 123.594 73.4461C122.671 69.1424 120.691 65.1367 118.165 61.5614C117.965 61.267 117.765 60.9721 117.559 60.6675C111.369 51.8284 102.563 46.2668 92.0021 44.0156C80.9781 42.2114 70.0203 44.6281 60.8833 51.0008C51.9449 57.5225 46.0191 66.7589 44.0328 77.7167C43.1158 83.6425 43.4832 89.5352 45.016 95.3286C45.104 95.6729 45.1918 96.0205 45.2825 96.3747C46.8186 101.572 49.4206 106.472 52.9629 110.544C53.1592 110.789 53.3568 111.034 53.5588 111.289C56.2072 114.523 59.7825 116.85 63.2255 119.168C63.4853 119.348 63.7452 119.528 64.0134 119.714C70.502 123.951 78.7783 125.044 86.3593 125.209C90.7623 125.315 94.9998 125.643 99.3034 126.437C99.5977 126.49 99.8927 126.543 100.194 126.597C108.669 128.157 116.515 131.067 124.129 135.039C124.364 135.162 124.599 135.284 124.841 135.41C129.972 138.121 134.706 141.435 139.043 145.308C139.323 145.552 139.602 145.795 139.89 146.047C143.433 149.172 146.743 152.502 149.623 156.243C150.014 156.73 150.014 156.73 150.414 157.23C159.585 168.75 168.49 185.667 167.43 200.928C166.99 203.643 165.295 205.398 163.193 207.053C158.492 210.43 153.162 213.111 147.932 215.594C147.718 215.695 147.505 215.797 147.286 215.901C145.849 216.58 144.409 217.249 142.982 217.911C142.638 218.072 142.297 218.233 141.943 218.401C139.033 219.758 136.149 220.93 132.905 220.003C129.78 218.725 127.84 216.659 126.417 213.614C125.589 211.402 125.377 209.244 125.298 206.893C124.94 197.028 120.895 189.05 114.836 181.502C113.403 179.647 111.667 178.359 109.91 176.826C102.462 170.702 93.3247 168.418 83.8566 168.153C70.1511 167.769 57.1407 164.71 45.1236 158.321C44.8793 158.195 44.6336 158.069 44.382 157.94C40.608 155.993 37.2313 153.57 33.8546 151.054C33.554 150.832 33.2521 150.611 32.9442 150.379C31.2393 149.091 29.6701 147.667 28.1109 146.208C27.409 145.565 26.694 144.95 25.9623 144.34C19.4075 138.613 14.4417 131.198 10.3698 123.55L10.0321 122.928C-0.395968 103.661 -1.72018 80.5534 4.47048 59.6972C7.39366 50.2622 11.886 41.4563 17.9774 33.6766C18.2502 33.3157 18.5236 32.9549 18.7918 32.594C25.5452 23.6225 34.0532 16.6705 43.7861 11.175C44.0182 11.0413 44.2496 10.9075 44.488 10.7711C60.0143 1.86584 78.9173 -1.24604 96.463 1.23684L96.2104 1.41296Z" fill="#CBF3F0"/>
<path fill-rule="evenodd" clip-rule="evenodd" d="M162.101 207.669C157.675 210.691 152.761 213.153 147.932 215.445C147.718 215.547 147.504 215.648 147.286 215.753C145.849 216.431 144.409 217.1 142.982 217.762C142.723 217.884 142.465 218.006 142.202 218.13C142.116 218.17 142.03 218.211 141.943 218.252C139.033 219.609 136.149 220.781 132.905 219.854C129.78 218.577 127.84 216.511 126.417 213.465C125.589 211.254 125.377 209.095 125.298 206.745C124.94 196.879 120.895 188.901 114.836 181.353C113.713 179.9 112.404 178.794 111.045 177.646C110.669 177.33 110.29 177.009 109.91 176.678C102.462 170.554 93.3246 168.269 83.8566 168.004C70.151 167.62 57.1407 164.562 45.1235 158.172C44.9465 158.081 44.7688 157.99 44.5886 157.898C44.5201 157.862 44.4513 157.827 44.382 157.792C40.608 155.845 37.2313 153.422 33.8546 150.906C33.7735 150.846 33.6923 150.786 33.6109 150.726C33.3906 150.563 33.169 150.4 32.9442 150.23C31.2393 148.943 29.6701 147.519 28.1108 146.059C27.409 145.417 26.6939 144.801 25.9623 144.192C19.4075 138.465 14.4417 131.049 10.3698 123.402L10.0321 122.78C3.73821 111.151 0.760623 98.1232 0.75 85.0359C11.7743 93.54 27.9398 101.652 50.0649 106.571C50.9461 107.909 51.9132 109.189 52.9629 110.395C53.0257 110.474 53.0888 110.552 53.152 110.631C53.2862 110.798 53.4215 110.967 53.5587 111.14C56.077 114.216 59.4334 116.471 62.7171 118.677C62.8868 118.791 63.0563 118.905 63.2254 119.019L63.2281 119.021C63.4871 119.201 63.7461 119.381 64.0133 119.565C70.5019 123.803 78.7782 124.895 86.3593 125.061C90.7623 125.167 94.9997 125.495 99.3034 126.289C99.5977 126.342 99.8927 126.395 100.194 126.449C108.669 128.008 116.515 130.918 124.129 134.891C124.364 135.013 124.599 135.136 124.841 135.262C129.972 137.973 134.706 141.287 139.043 145.16C139.323 145.404 139.602 145.647 139.89 145.898C143.433 149.023 146.743 152.354 149.623 156.095C150.002 156.566 150.013 156.581 150.379 157.036L150.414 157.081C159.124 168.024 167.595 183.834 167.516 198.471L162.101 207.669Z" fill="#2EC4B6" fill-opacity="0.33"/>
<path fill-rule="evenodd" clip-rule="evenodd" d="M73.238 123.627C77.5333 124.723 82.0583 125.115 86.3594 125.209C90.7624 125.315 94.9999 125.643 99.3035 126.437C99.5978 126.49 99.8928 126.543 100.194 126.597C108.669 128.157 116.515 131.066 124.129 135.039C124.337 135.147 124.545 135.256 124.757 135.366L124.841 135.41C129.972 138.121 134.706 141.435 139.043 145.308L139.094 145.353C139.357 145.582 139.62 145.81 139.89 146.047C143.433 149.172 146.743 152.502 149.623 156.243C150.014 156.73 150.014 156.73 150.415 157.229C159.585 168.75 168.49 185.667 167.431 200.928C166.99 203.643 165.295 205.397 163.193 207.053C158.492 210.429 153.162 213.111 147.932 215.594C147.843 215.636 147.754 215.678 147.664 215.721C147.539 215.78 147.413 215.84 147.286 215.901C145.849 216.58 144.409 217.248 142.982 217.91C142.724 218.031 142.468 218.152 142.207 218.276C142.119 218.317 142.032 218.359 141.943 218.4C139.033 219.758 136.15 220.93 132.905 220.003C129.78 218.725 127.84 216.659 126.417 213.613C125.589 211.402 125.377 209.244 125.298 206.893C124.94 197.028 120.895 189.049 114.836 181.501C113.713 180.048 112.404 178.942 111.045 177.795C110.669 177.478 110.29 177.158 109.91 176.826C102.462 170.702 93.3247 168.418 83.8567 168.153C70.1511 167.769 57.1408 164.71 45.1237 158.321C44.9466 158.229 44.7689 158.138 44.5887 158.046C44.5202 158.011 44.4514 157.975 44.3821 157.94C40.6081 155.993 37.2314 153.57 33.8547 151.054C33.7734 150.994 33.692 150.934 33.6104 150.874C33.3903 150.711 33.1689 150.548 32.9443 150.379C31.2394 149.091 29.6702 147.667 28.1109 146.207C27.4091 145.565 26.694 144.949 25.9624 144.34C19.4076 138.613 14.4418 131.198 10.3699 123.55L10.0322 122.928C4.36475 112.457 1.3863 100.851 0.841797 89.0889C14.4324 103.112 37.8431 118.534 73.238 123.627Z" fill="#2EC4B6"/>
</svg>
